<svg id="Layer_1" data-name="Layer 1" xmlns="http://www.w3.org/2000/svg" viewBox="0 0 552.35 444.1"><defs><style>.cls-1{fill:none;}.cls-1,.cls-2{stroke:#231f20;stroke-miterlimit:10;stroke-width:21px;}.cls-2{fill:#fff;}.cls-3{fill:#231f20;}</style></defs><title>J_Roemer_Logo</title><path class="cls-1" d="M571.68,381.44c0,102.71-83.27,186-186,186s-107.77-119.37-186-186c-115.3-98.2-370.06-168.24,186-186C488.36,192.2,571.68,278.73,571.68,381.44Z" transform="translate(-29.82 -184.88)"/><line class="cls-2" x1="10.5" y1="72.15" x2="10.5" y2="444.1"/><line class="cls-2" x1="541.85" y1="444.1" x2="541.85" y2="202.92"/><path class="cls-3" d="M560,320.86l3.84,6.15,3.84,6.15-83.27,31.37L401.14,395.9q-4.2-15.37-8.42-30.75L368,342.88a52.67,52.67,0,0,1-7.25-17,30.72,30.72,0,0,1,.48-15.34,38.42,38.42,0,0,1,6.92-13.16,47.68,47.68,0,0,1,12.05-10.48,71.33,71.33,0,0,1,9.69-5.08,63.63,63.63,0,0,1,9.95-3.35,56.7,56.7,0,0,1,10-1.54,51.61,51.61,0,0,1,9.72.29,45.78,45.78,0,0,1,9.42,2.23A50.18,50.18,0,0,1,446.47,290a61.22,61.22,0,0,1,7.51,8.38l25.74-32.43,13.53-17,12.21-15.39,4.1,6.58,4.11,6.57-11.95,14.81-13.73,17-25.68,31.81,12,19.19,12,19.19,36.87-13.89ZM446.39,309.29a45.27,45.27,0,0,0-8.8-10.5,31.48,31.48,0,0,0-10.49-6.05,32.49,32.49,0,0,0-11.73-1.67,40.82,40.82,0,0,0-12.48,2.64c-2.57.92-4.76,1.73-6.6,2.43s-3.31,1.31-4.42,1.8-2.14,1-3.08,1.48-1.8,1-2.58,1.46a29.21,29.21,0,0,0-7.46,6.51,23.38,23.38,0,0,0-4.23,8.16,19,19,0,0,0,0,9.88,40.23,40.23,0,0,0,5.21,11.63l21.32,20.74Q403.5,368.42,406,379l33.92-12.93,33.92-12.93Z" transform="translate(-29.82 -184.88)"/></svg>